REM DIRINDEX 1\2,1\3,1\4,1\5\6,1\5\7,1\8
REM DIRNAME folder01,folder02,folder03,folder04,folder05,folder06,folder07,folder08
TITLE ""
FILE "075 Åy075ÅzUnit4 (0853 tragic_0864 possession).mp3" MP3
  TRACK 01 AUDIO
    TITLE "0:"
    INDEX 01 00:00:00
  TRACK 02 AUDIO
    TITLE "2:cjc115_2902"
    INDEX 01 00:00:01
  TRACK 03 AUDIO
    TITLE "0:"
    INDEX 01 00:01:11
  TRACK 04 AUDIO
    TITLE "3:cjc115_2903"
    INDEX 01 00:01:22
  TRACK 05 AUDIO
    TITLE "0:"
    INDEX 01 00:03:41
  TRACK 06 AUDIO
    TITLE "4:cjc115_2904"
    INDEX 01 00:03:45
  TRACK 07 AUDIO
    TITLE "0:"
    INDEX 01 00:07:37
  TRACK 08 AUDIO
    TITLE "2:cjc115_2905"
    INDEX 01 00:08:48
  TRACK 09 AUDIO
    TITLE "0:"
    INDEX 01 00:09:51
  TRACK 10 AUDIO
    TITLE "3:cjc115_2906"
    INDEX 01 00:09:59
  TRACK 11 AUDIO
    TITLE "0:"
    INDEX 01 00:11:70
  TRACK 12 AUDIO
    TITLE "4:cjc115_2907"
    INDEX 01 00:12:03
  TRACK 13 AUDIO
    TITLE "0:"
    INDEX 01 00:15:50
  TRACK 14 AUDIO
    TITLE "2:cjc115_2908"
    INDEX 01 00:16:57
  TRACK 15 AUDIO
    TITLE "0:"
    INDEX 01 00:18:05
  TRACK 16 AUDIO
    TITLE "3:cjc115_2909"
    INDEX 01 00:18:07
  TRACK 17 AUDIO
    TITLE "0:"
    INDEX 01 00:19:71
  TRACK 18 AUDIO
    TITLE "4:cjc115_2910"
    INDEX 01 00:20:04
  TRACK 19 AUDIO
    TITLE "0:"
    INDEX 01 00:23:26
  TRACK 20 AUDIO
    TITLE "2:cjc115_2911"
    INDEX 01 00:24:33
  TRACK 21 AUDIO
    TITLE "0:"
    INDEX 01 00:25:54
  TRACK 22 AUDIO
    TITLE "3:cjc115_2912"
    INDEX 01 00:25:60
  TRACK 23 AUDIO
    TITLE "0:"
    INDEX 01 00:27:04
  TRACK 24 AUDIO
    TITLE "4:cjc115_2913"
    INDEX 01 00:27:06
  TRACK 25 AUDIO
    TITLE "0:"
    INDEX 01 00:29:74
  TRACK 26 AUDIO
    TITLE "2:cjc115_2914"
    INDEX 01 00:31:10
  TRACK 27 AUDIO
    TITLE "0:"
    INDEX 01 00:32:33
  TRACK 28 AUDIO
    TITLE "3:cjc115_2915"
    INDEX 01 00:32:43
  TRACK 29 AUDIO
    TITLE "0:"
    INDEX 01 00:34:26
  TRACK 30 AUDIO
    TITLE "4:cjc115_2916"
    INDEX 01 00:34:28
  TRACK 31 AUDIO
    TITLE "0:"
    INDEX 01 00:38:33
  TRACK 32 AUDIO
    TITLE "2:cjc115_2917"
    INDEX 01 00:39:43
  TRACK 33 AUDIO
    TITLE "0:"
    INDEX 01 00:40:62
  TRACK 34 AUDIO
    TITLE "3:cjc115_2918"
    INDEX 01 00:40:73
  TRACK 35 AUDIO
    TITLE "0:"
    INDEX 01 00:42:35
  TRACK 36 AUDIO
    TITLE "4:cjc115_2919"
    INDEX 01 00:42:45
  TRACK 37 AUDIO
    TITLE "0:"
    INDEX 01 00:45:24
  TRACK 38 AUDIO
    TITLE "2:cjc115_2920"
    INDEX 01 00:46:31
  TRACK 39 AUDIO
    TITLE "0:"
    INDEX 01 00:47:38
  TRACK 40 AUDIO
    TITLE "3:cjc115_2921"
    INDEX 01 00:47:48
  TRACK 41 AUDIO
    TITLE "0:"
    INDEX 01 00:48:59
  TRACK 42 AUDIO
    TITLE "4:cjc115_2922"
    INDEX 01 00:48:69
  TRACK 43 AUDIO
    TITLE "0:"
    INDEX 01 00:51:42
  TRACK 44 AUDIO
    TITLE "2:cjc115_2923"
    INDEX 01 00:52:47
  TRACK 45 AUDIO
    TITLE "0:"
    INDEX 01 00:53:60
  TRACK 46 AUDIO
    TITLE "3:cjc115_2924"
    INDEX 01 00:53:70
  TRACK 47 AUDIO
    TITLE "0:"
    INDEX 01 00:56:41
  TRACK 48 AUDIO
    TITLE "4:cjc115_2925"
    INDEX 01 00:56:47
  TRACK 49 AUDIO
    TITLE "0:"
    INDEX 01 01:00:19
  TRACK 50 AUDIO
    TITLE "2:cjc115_2926"
    INDEX 01 01:01:27
  TRACK 51 AUDIO
    TITLE "0:"
    INDEX 01 01:02:54
  TRACK 52 AUDIO
    TITLE "3:cjc115_2927"
    INDEX 01 01:02:67
  TRACK 53 AUDIO
    TITLE "0:"
    INDEX 01 01:04:19
  TRACK 54 AUDIO
    TITLE "4:cjc115_2928"
    INDEX 01 01:04:21
  TRACK 55 AUDIO
    TITLE "0:"
    INDEX 01 01:07:25
  TRACK 56 AUDIO
    TITLE "2:cjc115_2929"
    INDEX 01 01:08:35
  TRACK 57 AUDIO
    TITLE "0:"
    INDEX 01 01:09:54
  TRACK 58 AUDIO
    TITLE "3:cjc115_2930"
    INDEX 01 01:09:65
  TRACK 59 AUDIO
    TITLE "0:"
    INDEX 01 01:12:38
  TRACK 60 AUDIO
    TITLE "4:cjc115_2931"
    INDEX 01 01:12:44
  TRACK 61 AUDIO
    TITLE "0:"
    INDEX 01 01:16:36
  TRACK 62 AUDIO
    TITLE "2:cjc115_2932"
    INDEX 01 01:17:45
  TRACK 63 AUDIO
    TITLE "0:"
    INDEX 01 01:18:72
  TRACK 64 AUDIO
    TITLE "3:cjc115_2933"
    INDEX 01 01:19:07
  TRACK 65 AUDIO
    TITLE "0:"
    INDEX 01 01:21:49
  TRACK 66 AUDIO
    TITLE "4:cjc115_2934"
    INDEX 01 01:21:57
  TRACK 67 AUDIO
    TITLE "0:"
    INDEX 01 01:26:62
  TRACK 68 AUDIO
    TITLE "2:cjc115_2935"
    INDEX 01 01:27:73
  TRACK 69 AUDIO
    TITLE "0:"
    INDEX 01 01:29:13
  TRACK 70 AUDIO
    TITLE "3:cjc115_2936"
    INDEX 01 01:29:21
  TRACK 71 AUDIO
    TITLE "0:"
    INDEX 01 01:30:44
  TRACK 72 AUDIO
    TITLE "4:cjc115_2937"
    INDEX 01 01:30:50
  TRACK 73 AUDIO
    TITLE "0:"
    INDEX 01 01:33:68
